<mxfile host="65bd71144e">
    <diagram id="whXCd60FaXvsw_np8MrZ" name="Page-1">
        <mxGraphModel dx="722" dy="551" grid="1" gridSize="10" guides="1" tooltips="1" connect="1" arrows="1" fold="1" page="1" pageScale="1" pageWidth="827" pageHeight="1169" background="#ffffff" math="0" shadow="0">
            <root>
                <mxCell id="0"/>
                <mxCell id="1" parent="0"/>
                <mxCell id="2" style="edgeStyle=none;html=1;exitX=0;exitY=0.5;exitDx=0;exitDy=0;entryX=1;entryY=0.5;entryDx=0;entryDy=0;strokeColor=#000000;" parent="1" edge="1">
                    <mxGeometry relative="1" as="geometry">
                        <mxPoint x="310" y="161" as="sourcePoint"/>
                        <mxPoint x="180" y="161" as="targetPoint"/>
                    </mxGeometry>
                </mxCell>
                <mxCell id="3" style="edgeStyle=none;html=1;exitX=0.5;exitY=1;exitDx=0;exitDy=0;entryX=0.5;entryY=0;entryDx=0;entryDy=0;fontSize=13;fontColor=#0F0000;strokeColor=#000000;" parent="1" source="4" target="11" edge="1">
                    <mxGeometry relative="1" as="geometry"/>
                </mxCell>
                <mxCell id="4" value="&lt;b style=&quot;font-size: 13px&quot;&gt;&lt;font color=&quot;#000000&quot; style=&quot;font-size: 13px&quot;&gt;Login&lt;br&gt;5.0&lt;/font&gt;&lt;/b&gt;" style="ellipse;whiteSpace=wrap;html=1;strokeColor=#000000;fillColor=none;" parent="1" vertex="1">
                    <mxGeometry x="310" y="120" width="130" height="70" as="geometry"/>
                </mxCell>
                <mxCell id="5" style="edgeStyle=none;html=1;exitX=1;exitY=0.25;exitDx=0;exitDy=0;entryX=0.036;entryY=0.289;entryDx=0;entryDy=0;entryPerimeter=0;strokeColor=#000000;" parent="1" source="6" target="4" edge="1">
                    <mxGeometry relative="1" as="geometry"/>
                </mxCell>
                <mxCell id="6" value="&lt;b&gt;Customer&lt;/b&gt;" style="html=1;dashed=0;whitespace=wrap;fontSize=13;fontColor=#000000;strokeColor=#000000;fillColor=none;" parent="1" vertex="1">
                    <mxGeometry x="40" y="125" width="140" height="60" as="geometry"/>
                </mxCell>
                <mxCell id="7" style="edgeStyle=none;html=1;exitX=0;exitY=0.5;exitDx=0;exitDy=0;entryX=1;entryY=0.5;entryDx=0;entryDy=0;strokeColor=#000000;" parent="1" edge="1">
                    <mxGeometry relative="1" as="geometry">
                        <mxPoint x="570" y="161" as="sourcePoint"/>
                        <mxPoint x="440" y="161" as="targetPoint"/>
                    </mxGeometry>
                </mxCell>
                <mxCell id="8" style="edgeStyle=none;html=1;exitX=0.952;exitY=0.282;exitDx=0;exitDy=0;entryX=0.036;entryY=0.289;entryDx=0;entryDy=0;entryPerimeter=0;strokeColor=#000000;exitPerimeter=0;" parent="1" source="4" edge="1">
                    <mxGeometry relative="1" as="geometry">
                        <mxPoint x="440" y="140" as="sourcePoint"/>
                        <mxPoint x="574.6799999999998" y="140.23000000000002" as="targetPoint"/>
                    </mxGeometry>
                </mxCell>
                <mxCell id="9" value="&lt;font style=&quot;font-size: 13px&quot; color=&quot;#000000&quot;&gt;&lt;b&gt;customer&lt;/b&gt;&lt;/font&gt;" style="html=1;dashed=0;whitespace=wrap;shape=partialRectangle;right=0;left=0;fillColor=none;strokeColor=#000000;" parent="1" vertex="1">
                    <mxGeometry x="600" y="130" width="100" height="30" as="geometry"/>
                </mxCell>
                <mxCell id="10" style="edgeStyle=none;html=1;exitX=0.5;exitY=1;exitDx=0;exitDy=0;entryX=0.5;entryY=0;entryDx=0;entryDy=0;fontSize=13;fontColor=#0F0000;strokeColor=#000000;" parent="1" source="11" target="13" edge="1">
                    <mxGeometry relative="1" as="geometry"/>
                </mxCell>
                <mxCell id="11" value="&lt;font color=&quot;#000000&quot;&gt;&lt;span style=&quot;font-size: 13px&quot;&gt;&lt;b&gt;View Product&lt;br&gt;&lt;/b&gt;&lt;/span&gt;&lt;/font&gt;&lt;b&gt;&lt;font style=&quot;font-size: 13px&quot; color=&quot;#000000&quot;&gt;5.1&lt;/font&gt;&lt;/b&gt;" style="ellipse;whiteSpace=wrap;html=1;strokeColor=#000000;fillColor=none;" parent="1" vertex="1">
                    <mxGeometry x="310" y="220" width="130" height="70" as="geometry"/>
                </mxCell>
                <mxCell id="12" style="edgeStyle=none;html=1;exitX=0.5;exitY=1;exitDx=0;exitDy=0;entryX=0.5;entryY=0;entryDx=0;entryDy=0;fontSize=13;fontColor=#0F0000;strokeColor=#000000;" parent="1" source="13" target="14" edge="1">
                    <mxGeometry relative="1" as="geometry"/>
                </mxCell>
                <mxCell id="13" value="&lt;font style=&quot;font-size: 13px&quot; color=&quot;#000000&quot;&gt;&lt;b&gt;Add to cart&lt;br&gt;5.2&lt;br&gt;&lt;/b&gt;&lt;/font&gt;" style="ellipse;whiteSpace=wrap;html=1;strokeColor=#000000;fillColor=none;" parent="1" vertex="1">
                    <mxGeometry x="310" y="320" width="130" height="70" as="geometry"/>
                </mxCell>
                <mxCell id="14" value="&lt;font color=&quot;#0f0000&quot; style=&quot;font-size: 13px&quot;&gt;&lt;b&gt;Confirm Order&lt;br&gt;5.3&lt;br&gt;&lt;/b&gt;&lt;/font&gt;" style="ellipse;whiteSpace=wrap;html=1;strokeColor=#000000;fillColor=none;" parent="1" vertex="1">
                    <mxGeometry x="310" y="420" width="130" height="70" as="geometry"/>
                </mxCell>
                <mxCell id="15" value="&lt;font color=&quot;#0f0000&quot; style=&quot;font-size: 13px&quot;&gt;&lt;b&gt;Make Payment&lt;br&gt;5.4&lt;br&gt;&lt;/b&gt;&lt;/font&gt;" style="ellipse;whiteSpace=wrap;html=1;strokeColor=#000000;fillColor=none;" parent="1" vertex="1">
                    <mxGeometry x="310" y="520" width="130" height="70" as="geometry"/>
                </mxCell>
                <mxCell id="16" style="edgeStyle=none;html=1;exitX=0;exitY=0.5;exitDx=0;exitDy=0;entryX=1;entryY=0.643;entryDx=0;entryDy=0;strokeColor=#000000;entryPerimeter=0;" parent="1" edge="1">
                    <mxGeometry relative="1" as="geometry">
                        <mxPoint x="576.24" y="268" as="sourcePoint"/>
                        <mxPoint x="440" y="268.01" as="targetPoint"/>
                    </mxGeometry>
                </mxCell>
                <mxCell id="17" style="edgeStyle=none;html=1;exitX=0.952;exitY=0.282;exitDx=0;exitDy=0;entryX=0.036;entryY=0.289;entryDx=0;entryDy=0;entryPerimeter=0;strokeColor=#000000;exitPerimeter=0;" parent="1" edge="1">
                    <mxGeometry relative="1" as="geometry">
                        <mxPoint x="440" y="249.74" as="sourcePoint"/>
                        <mxPoint x="580.9199999999998" y="250.23000000000002" as="targetPoint"/>
                    </mxGeometry>
                </mxCell>
                <mxCell id="18" value="&lt;font style=&quot;font-size: 13px&quot; color=&quot;#000000&quot;&gt;&lt;b&gt;product&lt;/b&gt;&lt;/font&gt;" style="html=1;dashed=0;whitespace=wrap;shape=partialRectangle;right=0;left=0;fillColor=none;strokeColor=#000000;" parent="1" vertex="1">
                    <mxGeometry x="606.24" y="240" width="100" height="30" as="geometry"/>
                </mxCell>
                <mxCell id="19" style="edgeStyle=none;html=1;exitX=0;exitY=0.5;exitDx=0;exitDy=0;entryX=0.999;entryY=0.631;entryDx=0;entryDy=0;strokeColor=#000000;entryPerimeter=0;" parent="1" edge="1">
                    <mxGeometry relative="1" as="geometry">
                        <mxPoint x="576.24" y="370" as="sourcePoint"/>
                        <mxPoint x="439.8699999999999" y="369.16999999999996" as="targetPoint"/>
                    </mxGeometry>
                </mxCell>
                <mxCell id="20" style="edgeStyle=none;html=1;exitX=0.952;exitY=0.282;exitDx=0;exitDy=0;entryX=0.036;entryY=0.289;entryDx=0;entryDy=0;entryPerimeter=0;strokeColor=#000000;exitPerimeter=0;" parent="1" edge="1">
                    <mxGeometry relative="1" as="geometry">
                        <mxPoint x="440" y="349.74" as="sourcePoint"/>
                        <mxPoint x="580.9199999999998" y="350.23" as="targetPoint"/>
                    </mxGeometry>
                </mxCell>
                <mxCell id="21" value="&lt;font style=&quot;font-size: 13px&quot; color=&quot;#000000&quot;&gt;&lt;b&gt;order&lt;/b&gt;&lt;/font&gt;" style="html=1;dashed=0;whitespace=wrap;shape=partialRectangle;right=0;left=0;fillColor=none;strokeColor=#000000;" parent="1" vertex="1">
                    <mxGeometry x="606.24" y="340" width="100" height="30" as="geometry"/>
                </mxCell>
                <mxCell id="22" style="edgeStyle=none;html=1;exitX=0;exitY=0.5;exitDx=0;exitDy=0;entryX=1;entryY=0.643;entryDx=0;entryDy=0;strokeColor=#000000;entryPerimeter=0;" parent="1" edge="1">
                    <mxGeometry relative="1" as="geometry">
                        <mxPoint x="576.24" y="469" as="sourcePoint"/>
                        <mxPoint x="440" y="469.01" as="targetPoint"/>
                    </mxGeometry>
                </mxCell>
                <mxCell id="23" style="edgeStyle=none;html=1;exitX=0.952;exitY=0.282;exitDx=0;exitDy=0;entryX=0.036;entryY=0.289;entryDx=0;entryDy=0;entryPerimeter=0;strokeColor=#000000;exitPerimeter=0;" parent="1" edge="1">
                    <mxGeometry relative="1" as="geometry">
                        <mxPoint x="440" y="449.74" as="sourcePoint"/>
                        <mxPoint x="580.9199999999998" y="450.23" as="targetPoint"/>
                    </mxGeometry>
                </mxCell>
                <mxCell id="24" value="&lt;font style=&quot;font-size: 13px&quot; color=&quot;#000000&quot;&gt;&lt;b&gt;order&lt;/b&gt;&lt;/font&gt;" style="html=1;dashed=0;whitespace=wrap;shape=partialRectangle;right=0;left=0;fillColor=none;strokeColor=#000000;" parent="1" vertex="1">
                    <mxGeometry x="606.24" y="440" width="100" height="30" as="geometry"/>
                </mxCell>
                <mxCell id="25" style="edgeStyle=none;html=1;exitX=0;exitY=0.5;exitDx=0;exitDy=0;entryX=1;entryY=0.643;entryDx=0;entryDy=0;strokeColor=#000000;entryPerimeter=0;" parent="1" edge="1">
                    <mxGeometry relative="1" as="geometry">
                        <mxPoint x="586.24" y="569" as="sourcePoint"/>
                        <mxPoint x="440" y="569.01" as="targetPoint"/>
                    </mxGeometry>
                </mxCell>
                <mxCell id="26" style="edgeStyle=none;html=1;exitX=1;exitY=0.432;exitDx=0;exitDy=0;entryX=0.036;entryY=0.289;entryDx=0;entryDy=0;entryPerimeter=0;strokeColor=#000000;exitPerimeter=0;" parent="1" source="15" edge="1">
                    <mxGeometry relative="1" as="geometry">
                        <mxPoint x="450" y="549.74" as="sourcePoint"/>
                        <mxPoint x="590.9199999999998" y="550.23" as="targetPoint"/>
                    </mxGeometry>
                </mxCell>
                <mxCell id="27" value="&lt;font style=&quot;font-size: 13px&quot; color=&quot;#000000&quot;&gt;&lt;b&gt;payment&lt;/b&gt;&lt;/font&gt;" style="html=1;dashed=0;whitespace=wrap;shape=partialRectangle;right=0;left=0;fillColor=none;strokeColor=#000000;" parent="1" vertex="1">
                    <mxGeometry x="606.24" y="540" width="100" height="30" as="geometry"/>
                </mxCell>
                <mxCell id="28" value="&lt;b&gt;&lt;font color=&quot;#000000&quot; style=&quot;font-size: 13px&quot;&gt;Login Details&lt;/font&gt;&lt;/b&gt;" style="text;html=1;align=center;verticalAlign=middle;resizable=0;points=[];autosize=1;strokeColor=none;fillColor=none;" vertex="1" parent="1">
                    <mxGeometry x="200" y="125" width="100" height="20" as="geometry"/>
                </mxCell>
                <mxCell id="29" value="&lt;b&gt;Acknowledgement&lt;/b&gt;" style="text;html=1;align=center;verticalAlign=middle;resizable=0;points=[];autosize=1;strokeColor=none;fillColor=none;fontSize=13;fontColor=#000000;" vertex="1" parent="1">
                    <mxGeometry x="185" y="144" width="130" height="20" as="geometry"/>
                </mxCell>
                <mxCell id="30" value="&lt;b&gt;&lt;font style=&quot;font-size: 13px&quot; color=&quot;#000000&quot;&gt;Check for Login&lt;/font&gt;&lt;/b&gt;" style="text;html=1;align=center;verticalAlign=middle;resizable=0;points=[];autosize=1;strokeColor=none;fillColor=none;" vertex="1" parent="1">
                    <mxGeometry x="447" y="124" width="110" height="20" as="geometry"/>
                </mxCell>
                <mxCell id="31" value="&lt;b&gt;Acknowledgement&lt;/b&gt;" style="text;html=1;align=center;verticalAlign=middle;resizable=0;points=[];autosize=1;strokeColor=none;fillColor=none;fontSize=13;fontColor=#000000;" vertex="1" parent="1">
                    <mxGeometry x="443" y="145" width="130" height="20" as="geometry"/>
                </mxCell>
                <mxCell id="32" value="&lt;b&gt;&lt;font style=&quot;font-size: 13px&quot; color=&quot;#000000&quot;&gt;Search/Sort/View&lt;/font&gt;&lt;/b&gt;" style="text;html=1;align=center;verticalAlign=middle;resizable=0;points=[];autosize=1;strokeColor=none;fillColor=none;" vertex="1" parent="1">
                    <mxGeometry x="448" y="230" width="120" height="20" as="geometry"/>
                </mxCell>
                <mxCell id="33" value="&lt;b&gt;Acknowledgement&lt;/b&gt;" style="text;html=1;align=center;verticalAlign=middle;resizable=0;points=[];autosize=1;strokeColor=none;fillColor=none;fontSize=13;fontColor=#000000;" vertex="1" parent="1">
                    <mxGeometry x="448" y="250" width="130" height="20" as="geometry"/>
                </mxCell>
                <mxCell id="34" value="&lt;b&gt;Save selected product&lt;/b&gt;" style="text;html=1;align=center;verticalAlign=middle;resizable=0;points=[];autosize=1;strokeColor=none;fillColor=none;fontSize=13;fontColor=#000000;" vertex="1" parent="1">
                    <mxGeometry x="433" y="330" width="150" height="20" as="geometry"/>
                </mxCell>
                <mxCell id="35" value="&lt;b&gt;Acknowledgement&lt;/b&gt;" style="text;html=1;align=center;verticalAlign=middle;resizable=0;points=[];autosize=1;strokeColor=none;fillColor=none;fontSize=13;fontColor=#000000;" vertex="1" parent="1">
                    <mxGeometry x="448" y="350" width="130" height="20" as="geometry"/>
                </mxCell>
                <mxCell id="36" value="&lt;b&gt;Proceed/Cancel&lt;/b&gt;" style="text;html=1;align=center;verticalAlign=middle;resizable=0;points=[];autosize=1;strokeColor=none;fillColor=none;fontSize=13;fontColor=#000000;" vertex="1" parent="1">
                    <mxGeometry x="445" y="430" width="110" height="20" as="geometry"/>
                </mxCell>
                <mxCell id="37" value="&lt;b&gt;Acknowledgement&lt;/b&gt;" style="text;html=1;align=center;verticalAlign=middle;resizable=0;points=[];autosize=1;strokeColor=none;fillColor=none;fontSize=13;fontColor=#000000;" vertex="1" parent="1">
                    <mxGeometry x="445" y="450" width="130" height="20" as="geometry"/>
                </mxCell>
                <mxCell id="39" value="&lt;b&gt;Debit/Make Payment&lt;/b&gt;" style="text;html=1;align=center;verticalAlign=middle;resizable=0;points=[];autosize=1;strokeColor=none;fillColor=none;fontSize=13;fontColor=#000000;" vertex="1" parent="1">
                    <mxGeometry x="448" y="530" width="140" height="20" as="geometry"/>
                </mxCell>
                <mxCell id="40" value="&lt;b&gt;Acknowledgement&lt;/b&gt;" style="text;html=1;align=center;verticalAlign=middle;resizable=0;points=[];autosize=1;strokeColor=none;fillColor=none;fontSize=13;fontColor=#000000;" vertex="1" parent="1">
                    <mxGeometry x="453" y="550" width="130" height="20" as="geometry"/>
                </mxCell>
            </root>
        </mxGraphModel>
    </diagram>
</mxfile>